<?xml version="1.0" encoding="utf-8"?>
<!-- Generator: Adobe Illustrator 17.0.0, SVG Export Plug-In . SVG Version: 6.00 Build 0)  -->
<!DOCTYPE svg PUBLIC "-//W3C//DTD SVG 1.1//EN" "http://www.w3.org/Graphics/SVG/1.1/DTD/svg11.dtd">
<svg version="1.1" id="Layer_1" xmlns="http://www.w3.org/2000/svg" xmlns:xlink="http://www.w3.org/1999/xlink" x="0px" y="0px"
	 width="350px" height="78px" viewBox="0 0 726.31 161.341" enable-background="new 0 0 726.31 161.341"
	 xml:space="preserve">
<g>
	<path fill="#FFFFFF" d="M49.926,75.547h10.898c-0.72-4.698-1.658-9.633-2.718-14.071C55.28,65.894,52.453,70.802,49.926,75.547
		 M621.465,73.854h3.925c1.271,0,9.299,0.023,11.398-1.355c0.549-2.998-3.646-3.151-5.51-3.151
		C626.67,69.347,623.519,71.076,621.465,73.854 M473.976,95.373c-9.877,0-11.001,2.381-11.294,3.906
		c-0.136,0.753-0.065,1.099-0.029,1.205c0.34,0.271,1.697,0.968,5.147,0.968c3.207,0,5.722-1.261,6.489-5.48l0.118-0.599H473.976z
		 M351.313,52.933c-0.46,0-1.184,0.07-1.948,0.165l-2.499,13.521c1.452,0.163,3.128,0.246,5.044,0.246
		c6.56,0,8.826-2.509,9.647-6.918c1.213-6.508-0.34-7.015-5.034-7.015H351.313z M256.585,83.89
		c-2.367,12.767,1.762,15.414,7.54,15.414c5.754,0,11.438-5.159,13.097-14.101c2.204-11.943-1.998-15.281-7.573-15.281
		C264.857,69.922,258.175,75.27,256.585,83.89 M234.637,43.964h4.262l-2.255,12.212l0.23,1.004
		c6.997-6.832,15.827-11.628,25.624-13.832c-3.311-3.787-6.62-6.986-9.774-9.45c-2.948-2.219-10.323-7.711-14.085-5.787
		C236.225,29.356,233.902,34.042,234.637,43.964 M275.493,125.094l2.29,1.859c7.369,5.99,11.846,6.424,13.667,5.497
		c2.473-1.263,4.592-7.006,3.539-17.843c-5.527,4.752-12.185,8.249-19.746,10.288L275.493,125.094z M217.107,40.588l-0.623,3.376
		h1.233C217.494,42.846,217.308,41.715,217.107,40.588 M221.505,96.553c-0.351-3.529-0.189-7.277,0.552-11.231
		c0.838-4.577,2.228-8.871,4.085-12.87l-0.868-2.302c-2.529,1.106-5.227,1.765-7.8,1.765h-6.165l-4.282,23.131
		c-0.377,2.096-0.006,3.066,2.999,3.066C214.23,98.111,217.63,97.914,221.505,96.553 M133.027,63.353l-4.68,25.259
		c-1.49,8.039,0.195,9.229,5.711,9.229c5.206,0,8.93-2.983,10.288-10.32l8.054-43.57h12.09c7.644,0,13.829,2.048,16.878,6.829
		l0.133-0.753c1.525-8.21,7.608-14.318,13.882-18.32c4.235-2.706,10.176-5.524,16.812-5.524h3.627
		c0.027-11.634,3.214-20.714,10.901-24.568c9.736-4.86,21.841,1.768,33.168,13.189l2.686,2.789
		c3.695,4.193,10.952,12.772,18.917,24.846c18.76,2.706,28.487,14.991,30.299,29.591l7.995-42.42
		c10.211-2.151,21.679-4.341,32.135-4.341h10.57c14.537,0,26.95,5.654,31.805,16.579l4.022-21.752h12.501
		c13.853,0,20.33,7.23,17.621,21.894l-9.656,52.194c-0.236,1.277-0.177,1.977-0.106,2.331c0.442,0.348,2.045,1.275,5.619,1.275
		h5.902c4.075-17.961,20.38-25.885,47.599-25.885h0.398c0.038-0.336,0.038-0.569,0.029-0.734c-1.859-1.76-8.186-1.567-9.901-1.567
		c-11.249,0-16.334,1.416-24.842,7.853h-6.806l2.506-13.525c2.189-11.848,16.334-21.067,38.494-21.067
		c18.377,0,31.389,7.708,33.186,23.671c7.985-14.782,23.845-23.671,43.877-23.671c23.37,0,34.597,10.055,35.921,26.235
		c8.727-15.452,24.952-26.365,44.055-26.365c14.889,0,27.655,5.911,32.377,17.17l1.812-9.875c1.523-8.21,7.608-14.318,13.889-18.32
		c4.231-2.706,10.169-5.524,16.807-5.524h7.572l-3.287,17.783h22.426l-2.529,13.649c-1.62,8.747-11.675,14.301-18.893,14.301h-6.171
		l-4.276,23.122c-0.397,2.104-0.012,3.075,2.99,3.075c4.252,0,7.673-0.204,11.601-1.6h6.15l-2.697,14.582
		c-1.65,8.971-11.173,14.962-25.705,14.962c-14.277,0-30.614-7.127-26.259-30.766l1.095-5.849
		c-7.457,6.775-20.268,8.422-37.393,8.422h-5.583c1.685,1.541,4.919,2.544,10.893,2.544c7.749,0,16.674-0.537,23.677-4.571h6.805
		l-1.941,10.515c-2.226,11.981-14.148,20.679-36.506,20.679c-19.646,0-31.688-8.998-35.947-21.88l-3.671,19.788h-14.284
		c-13.949,0-18.789-5.885-16.29-19.416l4.666-25.247c1.493-8.045-0.189-9.228-5.714-9.228c-5.188,0-8.924,2.98-10.278,10.313
		l-8.054,43.577h-12.091c-10.662,0-18.465-3.987-18.926-13.812c-7.215,11.719-19.141,15.765-39.138,15.765
		c-10.567,0-25.097-3.659-30.385-14.059c-2.88,8.219-8.186,13.144-22.136,13.144c-15.639,0-28.845-9.473-25.111-29.603l3.506-18.932
		c-8.635,11.061-22.541,17.479-37.027,17.479c-3.059,0-6.124-0.091-8.958-0.522l-5.645,30.477H321.12
		c-2.453,0-4.925-0.493-7.16-1.484c0.54,3.866,0.847,7.563,0.895,11.017c0.15,10.78-2.258,21.127-10.621,25.297
		c-10.436,5.209-23.391-2.544-35.626-15.709l-2.441-2.49c-4.208-4.64-7.977-9.612-11.601-14.706
		c-12.997-1.153-23.636-7.599-29.143-17.518l-0.334,1.812c-1.665,8.971-11.176,14.962-25.704,14.962
		c-12.297,0-26.118-5.274-26.932-21.827c-8.284,13.658-23.636,21.797-42.8,21.797c-15.974,0-26.274-4.695-31.615-12.831
		c0.053,4.224-0.009,8.19-0.177,11.805H82.1c-10.524,0-18.049-3.332-18.256-14.835c-0.068-2.143-0.156-4.412-0.319-6.8H36.496
		c-3.261,7.044-5.864,14.387-8.635,21.635H14.407c-10.931,0-15.794-6.761-14.065-16.048c4.058-21.975,37.742-71.373,52.273-83.564
		h11.754c10.793,0,17.559,5.365,20.507,11.916c5.182,11.663,8.703,27.42,10.787,43.268l6.781-36.621h14.275
		C130.687,43.949,135.518,49.837,133.027,63.353"/>
	<path fill="#CC2029" d="M685.15,35.506c3.949-2.525,9.125-4.913,14.694-4.913h2.788l-3.287,17.774h22.423l-1.659,8.897
		c-1.142,6.229-8.985,11.02-14.974,11.02h-9.488l-4.878,26.409c-0.906,4.908,1.753,7.827,6.906,7.827c6.265,0,9.29-0.528,12.265-1.6
		h0.708l-1.818,9.827c-1.133,6.105-8.003,11.684-21.806,11.684c-13.088,0-26.034-5.982-22.343-26.021l8.378-45.243
		C674.285,44.527,679.31,39.228,685.15,35.506"/>
	<path fill="#CC2029" d="M631.51,65.717c-9.195,0-14.067,5.628-16.042,12.557h10.167c12.351,0,14.885-1.832,15.47-4.967
		C641.778,69.636,639.066,65.717,631.51,65.717 M624.46,94.233h-11.253c0.181,7.183,5.717,10.595,16.57,10.595
		c12.073,0,19.965-1.836,24.733-4.58h0.947L654.403,106c-1.703,9.148-11.038,17.391-32.593,17.391
		c-26.088,0-36.709-16.738-33.035-36.623c4.047-21.842,22.848-39.625,46.185-39.625c19.769,0,33.183,10.598,29.786,28.903
		C662.081,90.441,649.991,94.233,624.46,94.233"/>
	<path fill="#CC2029" d="M567.908,121.305c-11.518,0-14.419-3.657-12.392-14.652l4.681-25.244c1.788-9.68-0.838-13.994-9.627-13.994
		c-7.558,0-12.565,4.842-14.183,13.596l-7.47,40.295h-8.779c-11.108,0-16.512-4.186-14.582-14.652l4.669-25.244
		c3.831-20.67,20.743-34.139,44.754-34.139c26.764,0,35.109,13.469,31.176,34.797l-7.26,39.238H567.908z"/>
	<path fill="#CC2029" d="M479.439,91.74h-5.212c-9.892,0-14.304,2.357-15.204,7.188c-0.841,4.589,1.738,6.938,9.016,6.938
		c4.666,0,9.199-2.223,10.397-8.766L479.439,91.74z M462.075,123.27c-14.549,0-31.043-6.543-28.02-22.892
		c2.947-15.966,16.541-24.063,43.986-24.063h3.694l0.564-3.014c1.096-5.887-3.44-7.327-13.743-7.327
		c-14.139,0-19.932,3.134-26.149,7.85h-0.691l1.627-8.762c1.638-8.897,13.029-17.792,34.581-17.792
		c20.87,0,32.586,10.068,28.661,31.261l-2.045,11.12C499.69,115.797,489.538,123.27,462.075,123.27"/>
	<path fill="#CC2029" d="M409.562,122.352c-13.858,0-24.353-7.85-21.215-24.849l13.516-73.002h9.192
		c11.403,0,15.972,4.988,13.726,17.149l-9.67,52.193c-1.175,6.404,2.166,8.366,9.438,8.366h5.77l-1.614,8.636
		C427.089,119.607,417.802,122.352,409.562,122.352"/>
	<path fill="#CC2029" d="M356.767,49.309h-5.209c-1.236,0-4.061,0.393-5.336,0.655l-3.73,20.136
		c2.703,0.917,5.954,1.177,9.659,1.177c8.245,0,12.345-3.656,13.558-10.192C367.461,51.66,363.501,49.309,356.767,49.309
		 M350.906,91.288c-4.648,0-8.859-0.26-12.103-1.308l-5.775,31.271h-11.663c-6.864,0-13.578-4.58-11.565-15.443l13.643-72.423
		c7.422-1.567,19.661-3.704,28.715-3.704h10.579c19.622,0,32.926,10.474,29.432,29.299C388.55,78.61,370.542,91.288,350.906,91.288"
		/>
	<path d="M269.9,66.292c-7.251,0-15.142,7.302-16.987,17.249c-2.597,14.074,2.113,20.18,11.453,20.18
		c8.355,0,15.14-7.31,16.999-17.388C283.8,73.189,279.099,66.292,269.9,66.292 M275.25,46.39c20.894,0,36.883,15.116,32.719,37.688
		c-4.424,23.881-22.452,39.28-48.903,39.28c-21.865,0-36.848-15.399-32.867-36.896C230.662,62.323,251.152,46.39,275.25,46.39"/>
	<path d="M116.967,48.364c11.527,0,14.422,3.659,12.386,14.652l-4.672,25.235c-1.785,9.676,0.836,13.997,9.624,13.997
		c7.552,0,12.56-4.837,14.187-13.603l7.457-40.282h8.777c11.123,0,16.535,4.185,14.599,14.652l-4.671,25.235
		c-3.822,20.669-20.738,34.135-44.757,34.135c-26.767,0-35.125-13.466-31.182-34.784l7.28-39.238H116.967z"/>
	<path d="M59.824,52.623c-5.583,7.569-11.742,18.317-16.193,27.339h21.998C64.511,70.94,62.371,59.924,59.824,52.623 M82.327,121.36
		c-9.591,0-14.124-2.633-14.274-10.869c-0.077-3.332-0.251-6.909-0.655-10.757H34.25c-3.314,6.637-6.702,15.922-8.871,21.626H14.654
		c-8.499,0-11.421-4.507-10.164-11.282c2.459-13.26,30.025-63.688,49.812-80.273h10.294c9.334,0,14.632,4.512,16.901,9.544
		c6.495,14.604,14.263,50.833,12.82,82.012H82.327z"/>
	<path fill="#E97A25" d="M296.622,78.637c0,0-4.093-9.013-5.123-11.034c-12.091-23.928-25.981-40.555-31.621-46.819l0.023-0.062
		l-2.597-2.706l-0.003,0.018c-11.424-11.518-21.522-15.93-28.576-12.406c-12.159,6.073-11.639,32.327,1.983,67.403
		c1.366-2.729,2.93-5.082,4.592-7.342c-6.717-21.287-5.816-36.862,1.789-40.761c3.86-1.986,9.674-0.317,16.349,4.703l1.948,1.474
		c10.155,7.92,21.109,22.343,29.532,38.939c2.024,3.984,6.682,14.906,6.682,14.906c9.706,25.011,10.556,47.035,1.88,51.482
		c-4.208,2.151-10.577,0.038-17.946-5.952l-2.367-1.907c-2.06-1.773-3.886-3.52-5.955-5.742c-2.373,0.28-4.176,0.425-6.702,0.496
		c-1.03,0.035-2.57,0.059-3.568-0.021c4.167,6.056,8.086,11.105,12.354,15.815l2.39,2.638l0.056-0.127
		c12.418,13.387,23.379,18.658,30.975,14.865C317.617,149.048,310.93,111.695,296.622,78.637"/>
	<path d="M197.742,35.506c3.949-2.525,9.128-4.913,14.697-4.913h2.786l-3.275,17.774h22.411l-1.656,8.897
		c-1.142,6.229-8.995,11.02-14.98,11.02h-9.473l-4.89,26.409c-0.909,4.908,1.747,7.827,6.914,7.827c6.259,0,9.29-0.528,12.273-1.6
		h0.694l-1.824,9.827c-1.122,6.105-7.998,11.684-21.789,11.684c-13.094,0-26.052-5.982-22.346-26.021l8.378-45.243
		C186.876,44.527,191.905,39.228,197.742,35.506"/>
	<path d="M706.555,135.791c0.504-4.285-1.354-7.354-5.604-7.354c-5.126,0-8.665,2.735-9.754,7.569
		c-1.921,8.708,8.34,10.308,6.991,16.325c-0.384,1.812-1.812,2.777-3.618,2.777c-1.679,0-2.57-1.514-2.103-4.583l-5.138,0.711
		c-0.788,4.542,1.142,8.411,5.97,8.411c4.89,0,8.836-2.774,9.977-7.771c1.818-8.257-8.242-10.742-7.07-15.915
		c0.419-1.896,1.561-2.982,3.24-2.982c1.177,0,2.405,0.756,2.071,3.364L706.555,135.791z M677.875,136.346
		c0.502-2.278,1.369-3.364,3.485-3.364c2.099,0,2.567,1.086,2.057,3.364l-3.449,15.399c-0.493,2.27-1.391,3.364-3.488,3.364
		c-2.11,0-2.567-1.095-2.069-3.364L677.875,136.346z M669.191,151.878c-0.963,4.282,0.814,7.771,6.271,7.771
		c5.475,0,8.762-3.488,9.73-7.771l3.435-15.662c0.968-4.297-0.797-7.778-6.262-7.778c-5.466,0-8.754,3.481-9.722,7.778
		L669.191,151.878z M662.633,159.229l6.731-30.369h-5.209l-6.734,30.369H662.633z M645.339,146.781c0.93,0,2.03-0.045,2.697-0.13
		l0.921,12.577h5.304l-1.376-13.761c1.966-0.803,4.288-2.769,5.38-7.655c1.426-6.475-1.015-8.953-6.858-8.953h-7.318l-6.734,30.369
		h5.218L645.339,146.781z M648.335,133.141h1.847c2.827,0,3.669,1.054,2.862,4.672c-0.793,3.615-2.104,4.684-4.928,4.684h-1.848
		L648.335,133.141z M627.473,136.346c0.496-2.278,1.379-3.364,3.482-3.364c2.107,0,2.567,1.086,2.063,3.364l-3.45,15.399
		c-0.508,2.27-1.39,3.364-3.5,3.364c-2.093,0-2.562-1.095-2.054-3.364L627.473,136.346z M618.794,151.878
		c-0.965,4.282,0.797,7.771,6.268,7.771c5.472,0,8.753-3.488,9.725-7.771l3.443-15.662c0.971-4.297-0.791-7.778-6.262-7.778
		c-5.466,0-8.75,3.481-9.722,7.778L618.794,151.878z M619.806,135.791c0.502-4.285-1.349-7.354-5.595-7.354
		c-5.142,0-8.668,2.735-9.763,7.569c-1.918,8.708,8.334,10.308,6.988,16.325c-0.381,1.812-1.809,2.777-3.615,2.777
		c-1.691,0-2.579-1.514-2.113-4.583l-5.123,0.711c-0.797,4.542,1.143,8.411,5.962,8.411c4.89,0,8.844-2.774,9.983-7.771
		c1.812-8.257-8.245-10.742-7.068-15.915c0.422-1.896,1.556-2.982,3.234-2.982c1.178,0,2.405,0.756,2.058,3.364L619.806,135.791z
		 M596.879,159.229l1.012-4.535h-9.343l1.974-8.931h6.735l1.003-4.538h-6.734l1.733-7.83h8.744l1.015-4.535h-13.961l-6.729,30.369
		H596.879z M583.215,138.993l0.442-2.234c1.019-4.542-0.661-8.321-5.866-8.321c-5.483,0-8.762,3.481-9.725,7.778l-3.443,15.662
		c-0.977,4.282,0.785,7.771,6.262,7.771c5.209,0,8.5-3.488,9.462-7.771l0.755-3.5H575.9l-0.815,3.659
		c-0.461,1.978-1.31,3.072-3.199,3.072c-2.107,0-2.565-1.095-2.055-3.364l3.453-15.399c0.49-2.278,1.381-3.364,3.482-3.364
		c1.343,0,2.308,1.086,1.732,3.646l-0.502,2.366H583.215z M563.85,138.993l0.466-2.234c1.013-4.542-0.676-8.321-5.893-8.321
		c-5.466,0-8.747,3.481-9.707,7.778l-3.455,15.662c-0.956,4.282,0.806,7.771,6.262,7.771c5.232,0,8.512-3.488,9.471-7.771l0.761-3.5
		h-5.229l-0.784,3.659c-0.47,1.978-1.305,3.072-3.208,3.072c-2.099,0-2.567-1.095-2.054-3.364l3.446-15.399
		c0.511-2.278,1.393-3.364,3.494-3.364c1.343,0,2.314,1.086,1.727,3.646l-0.511,2.366H563.85z M532.067,152.492h5.713l-0.543,6.736
		h5.041l1.159-30.369h-6.504l-12.321,30.369h5.038L532.067,152.492z M538.792,134.906h0.079l-0.841,13.062h-4.202L538.792,134.906z
		 M514.212,146.61l10.228-17.751h-5.31l-6.056,11.565h-0.088l-1.089-11.565h-5.304l2.408,17.751l-2.812,12.618h5.203L514.212,146.61
		z M496.966,135.791c0.501-4.285-1.347-7.354-5.593-7.354c-5.141,0-8.683,2.735-9.766,7.569c-1.93,8.708,8.325,10.308,6.982,16.325
		c-0.384,1.812-1.809,2.777-3.618,2.777c-1.682,0-2.564-1.514-2.103-4.583l-5.127,0.711c-0.793,4.542,1.131,8.411,5.971,8.411
		c4.872,0,8.824-2.774,9.969-7.771c1.809-8.257-8.245-10.742-7.071-15.915c0.417-1.896,1.565-2.982,3.241-2.982
		c1.189,0,2.407,0.756,2.06,3.364L496.966,135.791z M468.272,136.346c0.508-2.278,1.399-3.364,3.494-3.364
		c2.104,0,2.564,1.086,2.062,3.364l-3.461,15.399c-0.499,2.27-1.376,3.364-3.482,3.364c-2.099,0-2.567-1.095-2.061-3.364
		L468.272,136.346z M459.602,151.878c-0.954,4.282,0.811,7.771,6.273,7.771c5.469,0,8.75-3.488,9.712-7.771l3.456-15.662
		c0.959-4.297-0.809-7.778-6.274-7.778c-5.459,0-8.744,3.481-9.706,7.778L459.602,151.878z M446.316,159.229h5.217l5.714-25.834
		h5.05l1.009-4.535h-15.302l-1.015,4.535h5.052L446.316,159.229z M445.088,135.791c0.501-4.285-1.346-7.354-5.596-7.354
		c-5.129,0-8.665,2.735-9.757,7.569c-1.927,8.708,8.331,10.308,6.985,16.325c-0.387,1.812-1.815,2.777-3.627,2.777
		c-1.679,0-2.561-1.514-2.098-4.583l-5.123,0.711c-0.8,4.542,1.118,8.411,5.973,8.411c4.875,0,8.839-2.774,9.966-7.771
		c1.807-8.257-8.248-10.742-7.061-15.915c0.419-1.896,1.552-2.982,3.223-2.982c1.198,0,2.411,0.756,2.071,3.364L445.088,135.791z
		 M423.013,159.229l1.01-4.535h-9.35l1.986-8.931h6.72l1.01-4.538h-6.729l1.723-7.83h8.757l0.997-4.535h-13.95l-6.734,30.369
		H423.013z M389.94,151.574c-1.127,5.223,1.27,8.074,6.222,8.074c4.97,0,8.623-2.852,9.768-8.074l5.038-22.715h-5.209l-5.085,22.927
		c-0.505,2.229-1.602,3.323-3.503,3.323c-1.883,0-2.57-1.095-2.063-3.323l5.105-22.927h-5.227L389.94,151.574z M373.285,159.229
		l2.773-12.447h2.267c6.445,0,9.975-2.49,11.4-8.969c1.436-6.475-1.01-8.953-7.437-8.953h-7.5l-6.713,30.369H373.285z
		 M379.05,133.141h2.014c3.402,0,4.258,1.054,3.44,4.672c-0.794,3.615-2.102,4.684-5.501,4.684h-2.019L379.05,133.141z
		 M365.622,159.229l1.019-4.535h-9.354l1.994-8.931h6.714l1.019-4.538h-6.729l1.721-7.83h8.744l1.018-4.535h-13.968l-6.732,30.369
		H365.622z M338.868,146.781c0.927,0,2.016-0.045,2.694-0.13l0.921,12.577h5.303l-1.385-13.761c1.966-0.803,4.289-2.769,5.371-7.655
		c1.432-6.475-0.997-8.953-6.849-8.953h-7.316l-6.737,30.369h5.221L338.868,146.781z M341.857,133.141h1.851
		c2.809,0,3.657,1.054,2.856,4.672c-0.793,3.615-2.101,4.684-4.922,4.684h-1.847L341.857,133.141z"/>
</g>
</svg>
